<svg width="22" height="22" viewBox="0 0 22 22" fill="none" xmlns="http://www.w3.org/2000/svg">
<path d="M18.938 7.00088H20C20.5304 7.00088 21.0391 7.21159 21.4142 7.58666C21.7893 7.96174 22 8.47044 22 9.00088V13.0009C22 13.5313 21.7893 14.04 21.4142 14.4151C21.0391 14.7902 20.5304 15.0009 20 15.0009H18.938C18.6942 16.9342 17.7533 18.7121 16.2917 20.0009C14.8302 21.2897 12.9486 22.0008 11 22.0009V20.0009C12.5913 20.0009 14.1174 19.3687 15.2426 18.2435C16.3679 17.1183 17 15.5922 17 14.0009V8.00088C17 6.40958 16.3679 4.88345 15.2426 3.75824C14.1174 2.63302 12.5913 2.00088 11 2.00088C9.4087 2.00088 7.88258 2.63302 6.75736 3.75824C5.63214 4.88345 5 6.40958 5 8.00088V15.0009H2C1.46957 15.0009 0.960859 14.7902 0.585786 14.4151C0.210714 14.04 0 13.5313 0 13.0009V9.00088C0 8.47044 0.210714 7.96174 0.585786 7.58666C0.960859 7.21159 1.46957 7.00088 2 7.00088H3.062C3.30603 5.06777 4.24708 3.29015 5.70857 2.00155C7.17007 0.712956 9.05155 0.00195312 11 0.00195312C12.9484 0.00195312 14.8299 0.712956 16.2914 2.00155C17.7529 3.29015 18.694 5.06777 18.938 7.00088ZM2 9.00088V13.0009H3V9.00088H2ZM19 9.00088V13.0009H20V9.00088H19ZM6.76 14.7859L7.82 13.0899C8.77308 13.6869 9.87537 14.0027 11 14.0009C12.1246 14.0027 13.2269 13.6869 14.18 13.0899L15.24 14.7859C13.9693 15.582 12.4995 16.0032 11 16.0009C9.50046 16.0032 8.03074 15.582 6.76 14.7859Z" fill="#161616"/>
</svg>
