<svg width="45" height="38" viewBox="0 0 45 38" fill="none" xmlns="http://www.w3.org/2000/svg">
<path d="M3.06081 17.6947C2.98587 17.3956 2.98012 17.0833 3.04398 16.7816C3.10785 16.4799 3.23965 16.1967 3.42938 15.9536C3.61911 15.7105 3.86176 15.5138 4.1389 15.3785C4.41604 15.2432 4.72038 15.1729 5.02877 15.1729H40.4114C40.7196 15.173 41.0237 15.2433 41.3007 15.3784C41.5776 15.5136 41.8201 15.7101 42.0098 15.953C42.1995 16.1958 42.3314 16.4787 42.3954 16.7802C42.4595 17.0816 42.454 17.3937 42.3794 17.6927L38.7052 32.3875C38.4858 33.2653 37.9792 34.0446 37.2661 34.6015C36.5529 35.1584 35.6741 35.461 34.7693 35.4611H10.6709C9.76609 35.461 8.88726 35.1584 8.17411 34.6015C7.46097 34.0446 6.95443 33.2653 6.73501 32.3875L3.06081 17.6947Z" stroke="white" stroke-width="4.05765" stroke-linejoin="round"/>
<path d="M16.6333 23.2882V27.3459M28.8063 23.2882V27.3459M10.5469 15.1729L18.6622 3M34.8927 15.1729L26.7775 3" stroke="white" stroke-width="4.05765" stroke-linecap="round"/>
</svg>