<svg width="22" height="18" viewBox="0 0 22 18" fill="none" xmlns="http://www.w3.org/2000/svg">
<path fill-rule="evenodd" clip-rule="evenodd" d="M18.9675 0.532504C19.2146 0.428495 19.4851 0.392623 19.7508 0.428621C20.0165 0.46462 20.2677 0.571173 20.4782 0.737189C20.6887 0.903206 20.8509 1.12262 20.9479 1.37259C21.0448 1.62256 21.073 1.89394 21.0295 2.1585L18.7615 15.9155C18.5415 17.2425 17.0855 18.0035 15.8685 17.3425C14.8505 16.7895 13.3385 15.9375 11.9785 15.0485C11.2985 14.6035 9.21551 13.1785 9.47151 12.1645C9.69151 11.2975 13.1915 8.0395 15.1915 6.1025C15.9765 5.3415 15.6185 4.9025 14.6915 5.6025C12.3895 7.3405 8.69351 9.9835 7.47151 10.7275C6.39351 11.3835 5.83151 11.4955 5.15951 11.3835C3.93351 11.1795 2.79651 10.8635 1.86851 10.4785C0.61451 9.95851 0.67551 8.2345 1.86751 7.7325L18.9675 0.532504Z" fill="black"/>
</svg>
