<svg width="21" height="25" viewBox="0 0 21 25" fill="none" xmlns="http://www.w3.org/2000/svg">
<path d="M1.61538 1.61538C1.18696 1.61538 0.776078 1.78558 0.473135 2.08852C0.170192 2.39146 0 2.80234 0 3.23077V4.84615C0 5.27458 0.170192 5.68546 0.473135 5.9884C0.776078 6.29135 1.18696 6.46154 1.61538 6.46154H2.42308V21C2.42308 21.8569 2.76346 22.6786 3.36935 23.2845C3.97523 23.8904 4.79699 24.2308 5.65385 24.2308H15.3462C16.203 24.2308 17.0248 23.8904 17.6307 23.2845C18.2365 22.6786 18.5769 21.8569 18.5769 21V6.46154H19.3846C19.813 6.46154 20.2239 6.29135 20.5269 5.9884C20.8298 5.68546 21 5.27458 21 4.84615V3.23077C21 2.80234 20.8298 2.39146 20.5269 2.08852C20.2239 1.78558 19.813 1.61538 19.3846 1.61538H13.7308C13.7308 1.18696 13.5606 0.776079 13.2576 0.473135C12.9547 0.170192 12.5438 0 12.1154 0L8.88462 0C8.45619 0 8.04531 0.170192 7.74237 0.473135C7.43942 0.776079 7.26923 1.18696 7.26923 1.61538H1.61538ZM6.46154 8.07692C6.67575 8.07692 6.88119 8.16202 7.03266 8.31349C7.18413 8.46496 7.26923 8.6704 7.26923 8.88462V20.1923C7.26923 20.4065 7.18413 20.612 7.03266 20.7634C6.88119 20.9149 6.67575 21 6.46154 21C6.24732 21 6.04189 20.9149 5.89041 20.7634C5.73894 20.612 5.65385 20.4065 5.65385 20.1923V8.88462C5.65385 8.6704 5.73894 8.46496 5.89041 8.31349C6.04189 8.16202 6.24732 8.07692 6.46154 8.07692ZM10.5 8.07692C10.7142 8.07692 10.9197 8.16202 11.0711 8.31349C11.2226 8.46496 11.3077 8.6704 11.3077 8.88462V20.1923C11.3077 20.4065 11.2226 20.612 11.0711 20.7634C10.9197 20.9149 10.7142 21 10.5 21C10.2858 21 10.0803 20.9149 9.92888 20.7634C9.7774 20.612 9.69231 20.4065 9.69231 20.1923V8.88462C9.69231 8.6704 9.7774 8.46496 9.92888 8.31349C10.0803 8.16202 10.2858 8.07692 10.5 8.07692ZM15.3462 8.88462V20.1923C15.3462 20.4065 15.2611 20.612 15.1096 20.7634C14.9581 20.9149 14.7527 21 14.5385 21C14.3242 21 14.1188 20.9149 13.9673 20.7634C13.8159 20.612 13.7308 20.4065 13.7308 20.1923V8.88462C13.7308 8.6704 13.8159 8.46496 13.9673 8.31349C14.1188 8.16202 14.3242 8.07692 14.5385 8.07692C14.7527 8.07692 14.9581 8.16202 15.1096 8.31349C15.2611 8.46496 15.3462 8.6704 15.3462 8.88462Z" fill="white"/>
</svg>