<svg width="8" height="40" viewBox="0 0 28 40" fill="none" xmlns="http://www.w3.org/2000/svg">
<path opacity="0.2" fill-rule="evenodd" clip-rule="evenodd" d="M6 4.75C6 3.95435 6.31607 3.19129 6.87868 2.62868C7.44129 2.06607 8.20435 1.75 9 1.75H25C25.7956 1.75 26.5587 2.06607 27.1213 2.62868C27.6839 3.19129 28 3.95435 28 4.75V36.75C28 37.5456 27.6839 38.3087 27.1213 38.8713C26.5587 39.4339 25.7956 39.75 25 39.75H9C8.20435 39.75 7.44129 39.4339 6.87868 38.8713C6.31607 38.3087 6 37.5456 6 36.75V4.75Z" fill="#050631"/>
<path fill-rule="evenodd" clip-rule="evenodd" d="M0 3.75C0 2.95435 0.31607 2.19129 0.878679 1.62868C1.44129 1.06607 2.20435 0.75 3 0.75H21C21.7956 0.75 22.5587 1.06607 23.1213 1.62868C23.6839 2.19129 24 2.95435 24 3.75V35.75C24 36.5456 23.6839 37.3087 23.1213 37.8713C22.5587 38.4339 21.7956 38.75 21 38.75H3C2.20435 38.75 1.44129 38.4339 0.878679 37.8713C0.31607 37.3087 0 36.5456 0 35.75V3.75ZM3 2.75C2.73478 2.75 2.48043 2.85536 2.29289 3.04289C2.10536 3.23043 2 3.48478 2 3.75V35.75C2 36.0152 2.10536 36.2696 2.29289 36.4571C2.48043 36.6446 2.73478 36.75 3 36.75H21C21.2652 36.75 21.5196 36.6446 21.7071 36.4571C21.8946 36.2696 22 36.0152 22 35.75V3.75C22 3.48478 21.8946 3.23043 21.7071 3.04289C21.5196 2.85536 21.2652 2.75 21 2.75H3Z" fill="black"/>
<path fill-rule="evenodd" clip-rule="evenodd" d="M7 5.75C7 5.21957 7.21071 4.71086 7.58579 4.33579C7.96086 3.96071 8.46957 3.75 9 3.75H15C15.5304 3.75 16.0391 3.96071 16.4142 4.33579C16.7893 4.71086 17 5.21957 17 5.75C17 6.28043 16.7893 6.78914 16.4142 7.16421C16.0391 7.53929 15.5304 7.75 15 7.75H9C8.46957 7.75 7.96086 7.53929 7.58579 7.16421C7.21071 6.78914 7 6.28043 7 5.75Z" fill="black"/>
</svg>
